<?xml version="1.0" encoding="UTF-8" standalone="no"?>
<!-- Created with Inkscape (http://www.inkscape.org/) -->

<svg
   xmlns:dc="http://purl.org/dc/elements/1.1/"
   xmlns:cc="http://creativecommons.org/ns#"
   xmlns:rdf="http://www.w3.org/1999/02/22-rdf-syntax-ns#"
   xmlns:svg="http://www.w3.org/2000/svg"
   xmlns="http://www.w3.org/2000/svg"
   xmlns:sodipodi="http://sodipodi.sourceforge.net/DTD/sodipodi-0.dtd"
   xmlns:inkscape="http://www.inkscape.org/namespaces/inkscape"
   width="346.56296mm"
   height="173.28148mm"
   viewBox="0 0 346.56295 173.28148"
   version="1.1"
   id="svg8"
   sodipodi:docname="event.svg"
   inkscape:version="0.92.5 (2060ec1f9f, 2020-04-08)">
  <defs
     id="defs2" />
  <sodipodi:namedview
     id="base"
     pagecolor="#ffffff"
     bordercolor="#666666"
     borderopacity="1.0"
     inkscape:pageopacity="0.0"
     inkscape:pageshadow="2"
     inkscape:zoom="0.35355339"
     inkscape:cx="842.22925"
     inkscape:cy="330.74436"
     inkscape:document-units="mm"
     inkscape:current-layer="layer1"
     showgrid="false"
     inkscape:window-width="1920"
     inkscape:window-height="1043"
     inkscape:window-x="0"
     inkscape:window-y="0"
     inkscape:window-maximized="1" />
  <metadata
     id="metadata5">
    <rdf:RDF>
      <cc:Work
         rdf:about="">
        <dc:format>image/svg+xml</dc:format>
        <dc:type
           rdf:resource="http://purl.org/dc/dcmitype/StillImage" />
        <dc:title></dc:title>
      </cc:Work>
    </rdf:RDF>
  </metadata>
  <g
     inkscape:label="Layer 1"
     inkscape:groupmode="layer"
     id="layer1"
     transform="translate(-25.792749,-51.165279)">
    <rect
       id="rect3715"
       width="346.56296"
       height="173.28148"
       x="25.792749"
       y="51.165279"
       style="fill:#999999;stroke-width:0.77972686" />
    <g
       id="g3875"
       transform="matrix(0.29847278,0,0,0.29847278,70.662975,177.70566)"
       style="fill:#e6e6e6">
      <g
         id="g3805"
         style="fill:#e6e6e6"
         transform="matrix(8.8692249,0,0,5.7885956,-4.2179673,-417.22788)">
	<g
   id="g3803"
   style="fill:#e6e6e6">
		<path
   id="path3775"
   d="m 49.541,38.655 c 1.617,0 3.158,0.338 4.559,0.946 0.105,-2.286 0.893,-4.4 2.157,-6.15 -0.89,-0.186 -1.808,-0.285 -2.748,-0.285 h -8.906 c -0.938,0 -1.856,0.098 -2.739,0.282 1.347,1.869 2.152,4.15 2.165,6.62 1.637,-0.9 3.515,-1.413 5.512,-1.413 z"
   inkscape:connector-curvature="0"
   style="fill:#e6e6e6" />

		<circle
   id="circle3777"
   r="10.496"
   cy="21.954"
   cx="49.054001"
   style="fill:#e6e6e6" />

		<path
   id="path3779"
   d="m 65.539,50.36 c 5.342,0 9.67,-4.33 9.67,-9.67 0,-5.342 -4.328,-9.67 -9.67,-9.67 -5.292,0 -9.583,4.251 -9.663,9.524 3.049,1.912 5.187,5.146 5.577,8.9 1.242,0.582 2.623,0.916 4.086,0.916 z"
   inkscape:connector-curvature="0"
   style="fill:#e6e6e6" />

		<path
   id="path3781"
   d="m 32.571,31.019 c -5.343,0 -9.671,4.329 -9.671,9.67 0,5.341 4.328,9.669 9.671,9.669 1.892,0 3.651,-0.553 5.143,-1.492 0.475,-3.091 2.132,-5.794 4.499,-7.634 0.01,-0.181 0.027,-0.36 0.027,-0.543 0,-5.341 -4.33,-9.67 -9.669,-9.67 z"
   inkscape:connector-curvature="0"
   style="fill:#e6e6e6" />

		<path
   id="path3783"
   d="m 71.82,30.813 c 3.049,1.912 5.187,5.146 5.576,8.901 1.241,0.581 2.623,0.916 4.086,0.916 5.342,0 9.67,-4.329 9.67,-9.67 0,-5.341 -4.328,-9.67 -9.67,-9.67 -5.291,-10e-4 -9.582,4.251 -9.662,9.523 z"
   inkscape:connector-curvature="0"
   style="fill:#e6e6e6" />

		<circle
   id="circle3785"
   r="9.6709995"
   cy="50.673"
   cx="49.541"
   style="fill:#e6e6e6" />

		<path
   id="path3787"
   d="m 69.643,51.019 h -8.144 c -0.089,3.258 -1.479,6.192 -3.679,8.301 6.068,1.806 10.509,7.434 10.509,14.082 v 3.092 c 8.04,-0.297 12.674,-2.573 12.979,-2.729 l 0.646,-0.328 h 0.067 V 63.401 C 82.023,56.573 76.469,51.019 69.643,51.019 Z"
   inkscape:connector-curvature="0"
   style="fill:#e6e6e6" />

		<path
   id="path3789"
   d="m 85.585,41.289 h -8.142 c -0.088,3.258 -1.479,6.192 -3.678,8.301 6.068,1.806 10.508,7.433 10.508,14.081 v 3.092 c 8.039,-0.296 12.674,-2.572 12.979,-2.729 l 0.646,-0.327 h 0.069 V 53.671 c 0,-6.827 -5.554,-12.382 -12.382,-12.382 z"
   inkscape:connector-curvature="0"
   style="fill:#e6e6e6" />

		<path
   id="path3791"
   d="m 41.256,59.319 c -2.189,-2.099 -3.575,-5.017 -3.677,-8.254 -0.301,-0.022 -0.6,-0.047 -0.908,-0.047 h -8.203 c -6.828,0 -12.383,5.555 -12.383,12.383 v 10.037 l 0.025,0.155 0.691,0.218 c 5.227,1.633 9.893,2.383 13.944,2.621 v -3.031 c 0.002,-6.647 4.441,-12.275 10.511,-14.082 z"
   inkscape:connector-curvature="0"
   style="fill:#e6e6e6" />

		<path
   id="path3793"
   d="m 53.643,61.003 h -8.206 c -6.828,0 -12.383,5.557 -12.383,12.382 v 10.037 l 0.026,0.157 0.69,0.216 c 6.516,2.035 12.177,2.715 16.835,2.715 9.101,0 14.375,-2.595 14.701,-2.76 l 0.646,-0.328 H 66.02 V 73.385 C 66.023,66.558 60.469,61.003 53.643,61.003 Z"
   inkscape:connector-curvature="0"
   style="fill:#e6e6e6" />

		<path
   id="path3795"
   d="m 16.486,40.938 c 1.463,0 2.844,-0.335 4.086,-0.916 0.39,-3.755 2.527,-6.99 5.576,-8.902 -0.08,-5.271 -4.371,-9.523 -9.662,-9.523 -5.343,0 -9.671,4.329 -9.671,9.671 0,5.341 4.328,9.67 9.671,9.67 z"
   inkscape:connector-curvature="0"
   style="fill:#e6e6e6" />

		<path
   id="path3797"
   d="M 24.202,49.899 C 22.004,47.79 20.613,44.855 20.525,41.596 H 12.382 C 5.554,41.597 0,47.152 0,53.979 v 10.037 h 0.069 l 0.646,0.327 c 0.306,0.154 4.939,2.433 12.979,2.728 v -3.092 c 0,-6.647 4.439,-12.275 10.508,-14.08 z"
   inkscape:connector-curvature="0"
   style="fill:#e6e6e6" />

		<path
   id="path3799"
   d="m 27.796,30.063 c 1.16,-0.47 2.93,-1.047 4.62,-1.047 1.967,0 3.891,0.506 5.607,1.469 0.382,-0.375 0.732,-0.783 1.05,-1.22 -1.63,-2.141 -2.52,-4.765 -2.52,-7.464 0,-1.818 0.406,-3.622 1.18,-5.261 -1.762,-1.592 -4.01,-2.461 -6.399,-2.461 -4.348,0 -8.133,2.943 -9.241,7.088 3.248,1.89 5.364,5.194 5.703,8.896 z"
   inkscape:connector-curvature="0"
   style="fill:#e6e6e6" />

		<path
   id="path3801"
   d="m 59.117,28.718 c 0.336,0.534 0.729,1.037 1.175,1.505 1.588,-0.792 3.334,-1.208 5.092,-1.208 1.729,0 3.386,0.442 4.472,0.812 0.34,-4.013 2.767,-7.555 6.4,-9.35 -1.332,-3.805 -4.938,-6.402 -9.021,-6.402 -2.64,0 -5.14,1.084 -6.945,2.992 0.634,1.512 0.955,3.101 0.955,4.73 -10e-4,2.495 -0.735,4.873 -2.128,6.921 z"
   inkscape:connector-curvature="0"
   style="fill:#e6e6e6" />

	</g>

</g>
      <g
         id="g3807"
         style="fill:#e6e6e6">
</g>
      <g
         id="g3809"
         style="fill:#e6e6e6">
</g>
      <g
         id="g3811"
         style="fill:#e6e6e6">
</g>
      <g
         id="g3813"
         style="fill:#e6e6e6">
</g>
      <g
         id="g3815"
         style="fill:#e6e6e6">
</g>
      <g
         id="g3817"
         style="fill:#e6e6e6">
</g>
      <g
         id="g3819"
         style="fill:#e6e6e6">
</g>
      <g
         id="g3821"
         style="fill:#e6e6e6">
</g>
      <g
         id="g3823"
         style="fill:#e6e6e6">
</g>
      <g
         id="g3825"
         style="fill:#e6e6e6">
</g>
      <g
         id="g3827"
         style="fill:#e6e6e6">
</g>
      <g
         id="g3829"
         style="fill:#e6e6e6">
</g>
      <g
         id="g3831"
         style="fill:#e6e6e6">
</g>
      <g
         id="g3833"
         style="fill:#e6e6e6">
</g>
      <g
         id="g3835"
         style="fill:#e6e6e6">
</g>
    </g>
  </g>
</svg>
