<?xml version="1.0" encoding="UTF-8" standalone="no"?>
<!-- Created with Inkscape (http://www.inkscape.org/) -->

<svg
   xmlns:dc="http://purl.org/dc/elements/1.1/"
   xmlns:cc="http://creativecommons.org/ns#"
   xmlns:rdf="http://www.w3.org/1999/02/22-rdf-syntax-ns#"
   xmlns:svg="http://www.w3.org/2000/svg"
   xmlns="http://www.w3.org/2000/svg"
   xmlns:sodipodi="http://sodipodi.sourceforge.net/DTD/sodipodi-0.dtd"
   xmlns:inkscape="http://www.inkscape.org/namespaces/inkscape"
   width="90mm"
   height="90mm"
   viewBox="0 0 89.999998 90.000001"
   version="1.1"
   id="svg8"
   sodipodi:docname="house.svg"
   inkscape:version="0.92.5 (2060ec1f9f, 2020-04-08)">
  <defs
     id="defs2" />
  <sodipodi:namedview
     id="base"
     pagecolor="#ffffff"
     bordercolor="#666666"
     borderopacity="1.0"
     inkscape:pageopacity="0.0"
     inkscape:pageshadow="2"
     inkscape:zoom="1"
     inkscape:cx="283.69185"
     inkscape:cy="79.851276"
     inkscape:document-units="mm"
     inkscape:current-layer="layer1"
     showgrid="false"
     inkscape:window-width="1920"
     inkscape:window-height="1043"
     inkscape:window-x="0"
     inkscape:window-y="0"
     inkscape:window-maximized="1" />
  <metadata
     id="metadata5">
    <rdf:RDF>
      <cc:Work
         rdf:about="">
        <dc:format>image/svg+xml</dc:format>
        <dc:type
           rdf:resource="http://purl.org/dc/dcmitype/StillImage" />
        <dc:title></dc:title>
      </cc:Work>
    </rdf:RDF>
  </metadata>
  <g
     inkscape:label="Layer 1"
     inkscape:groupmode="layer"
     id="layer1"
     transform="translate(-25.792749,-134.44676)">
    <rect
       id="rect3715"
       width="90"
       height="90"
       x="25.792749"
       y="134.44676"
       style="fill:#999999;stroke-width:0.28636363" />
    <g
       id="g4007"
       transform="matrix(0.1766113,0,0,0.19153161,43.702937,150.06838)"
       style="fill:#e6e6e6">
      <g
         id="g3951"
         style="fill:#e6e6e6">
	<path
   id="path3949"
   d="m 302.93,149.794 c 5.561,-6.116 5.024,-15.49 -1.199,-20.932 L 164.63,8.898 C 158.407,3.456 148.43,3.57 142.338,9.155 L 4.771,135.258 c -6.092,5.585 -6.391,14.947 -0.662,20.902 l 3.449,3.592 c 5.722,5.955 14.971,6.665 20.645,1.581 l 10.281,-9.207 v 134.792 c 0,8.27 6.701,14.965 14.965,14.965 h 53.624 c 8.264,0 14.965,-6.695 14.965,-14.965 v -94.3 h 68.398 v 94.3 c -0.119,8.264 5.794,14.959 14.058,14.959 h 56.828 c 8.264,0 14.965,-6.695 14.965,-14.965 V 154.024 c 0,0 2.84,2.488 6.343,5.567 3.497,3.073 10.842,0.609 16.403,-5.513 z"
   style="fill:#e6e6e6"
   inkscape:connector-curvature="0" />

</g>
      <g
         id="g3953"
         style="fill:#e6e6e6">
</g>
      <g
         id="g3955"
         style="fill:#e6e6e6">
</g>
      <g
         id="g3957"
         style="fill:#e6e6e6">
</g>
      <g
         id="g3959"
         style="fill:#e6e6e6">
</g>
      <g
         id="g3961"
         style="fill:#e6e6e6">
</g>
      <g
         id="g3963"
         style="fill:#e6e6e6">
</g>
      <g
         id="g3965"
         style="fill:#e6e6e6">
</g>
      <g
         id="g3967"
         style="fill:#e6e6e6">
</g>
      <g
         id="g3969"
         style="fill:#e6e6e6">
</g>
      <g
         id="g3971"
         style="fill:#e6e6e6">
</g>
      <g
         id="g3973"
         style="fill:#e6e6e6">
</g>
      <g
         id="g3975"
         style="fill:#e6e6e6">
</g>
      <g
         id="g3977"
         style="fill:#e6e6e6">
</g>
      <g
         id="g3979"
         style="fill:#e6e6e6">
</g>
      <g
         id="g3981"
         style="fill:#e6e6e6">
</g>
    </g>
  </g>
</svg>
